<svg width="14" height="14" viewBox="0 0 14 14" fill="none" xmlns="http://www.w3.org/2000/svg">
<g clip-path="url(#clip0_2193_8465)">
<path d="M11.2112 9.52641V11.2106C11.2112 11.6756 10.8341 12.0527 10.3691 12.0527H3.63227C3.16727 12.0527 2.79017 11.6756 2.79017 11.2106V9.52641C2.79017 9.06141 2.41306 8.6843 1.94806 8.6843C1.48306 8.6843 1.10596 9.06141 1.10596 9.52641V11.2106C1.10596 12.6059 2.23701 13.7369 3.63227 13.7369H10.3691C11.7644 13.7369 12.8954 12.6059 12.8954 11.2106V9.52641C12.8954 9.06141 12.5183 8.6843 12.0533 8.6843C11.5883 8.6843 11.2112 9.06062 11.2112 9.52641ZM6.40596 0.509958L3.03754 3.87838C2.70833 4.20759 2.70885 4.74048 3.03754 5.06917C3.36648 5.39812 3.89938 5.39812 4.22833 5.06917L6.15859 3.13956V8.6843C6.15859 9.14983 6.53517 9.52641 7.00069 9.52641C7.46622 9.52641 7.8428 9.14983 7.8428 8.6843V3.13956L9.77385 5.07062C10.1028 5.39956 10.6357 5.39956 10.9646 5.07062C11.2936 4.74167 11.2936 4.20877 10.9646 3.87983L7.59622 0.511405C7.26648 0.18101 6.7349 0.18101 6.40596 0.509958Z" fill="#05C46B"/>
</g>
<defs>
<clipPath id="clip0_2193_8465">
<rect width="13.4737" height="13.4737" fill="white" transform="translate(0.263672 0.263184)"/>
</clipPath>
</defs>
</svg>
