<svg width="24" height="24" viewBox="0 0 24 24" fill="none" xmlns="http://www.w3.org/2000/svg">
<path d="M22.4576 12C22.4576 12.8297 21.8295 13.5 20.9998 13.5H6.6232L11.5638 18.4406C12.1498 19.0266 12.1498 19.9758 11.5638 20.5617C11.2685 20.8547 10.8841 21 10.4998 21C10.1154 21 9.73195 20.8535 9.43945 20.5605L1.93945 13.0605C1.35352 12.4746 1.35352 11.5254 1.93945 10.9395L9.43945 3.43945C10.0254 2.85352 10.9746 2.85352 11.5605 3.43945C12.1465 4.02539 12.1465 4.97461 11.5605 5.56055L6.6232 10.5H20.9998C21.8295 10.5 22.4576 11.1703 22.4576 12Z" fill="#1C221E"/>
</svg>
