<svg width="18" height="18" viewBox="0 0 18 18" fill="none" xmlns="http://www.w3.org/2000/svg">
<path d="M1.15669 9C1.15669 9.62227 1.62779 10.125 2.25005 10.125H13.0325L9.32701 13.8305C8.88755 14.2699 8.88755 14.9818 9.32701 15.4213C9.54849 15.641 9.83677 15.75 10.1251 15.75C10.4133 15.75 10.7009 15.6401 10.9203 15.4204L16.5453 9.79541C16.9847 9.35596 16.9847 8.64404 16.5453 8.20459L10.9203 2.57959C10.4808 2.14014 9.76892 2.14014 9.32947 2.57959C8.89001 3.01904 8.89001 3.73096 9.32947 4.17041L13.0325 7.875H2.25005C1.62779 7.875 1.15669 8.37773 1.15669 9Z" fill="#1C221E"/>
</svg>
