<svg width="18" height="18" viewBox="0 0 18 18" fill="none" xmlns="http://www.w3.org/2000/svg">
<path d="M5.625 14.625H3.375C2.75379 14.625 2.25 14.1212 2.25 13.5V4.5C2.25 3.87879 2.75379 3.375 3.375 3.375H5.625C6.24621 3.375 6.75 2.87121 6.75 2.25C6.75 1.62879 6.24727 1.125 5.625 1.125H3.375C1.51102 1.125 0 2.63602 0 4.5V13.5C0 15.364 1.51102 16.875 3.375 16.875H5.625C6.24621 16.875 6.75 16.3712 6.75 15.75C6.75 15.1288 6.24727 14.625 5.625 14.625ZM17.6695 8.20547L13.1695 3.70547C12.7297 3.26566 12.0178 3.26637 11.5787 3.70547C11.1393 4.14492 11.1393 4.85684 11.5787 5.29629L14.1609 7.875H6.75C6.12773 7.875 5.625 8.37773 5.625 9C5.625 9.62227 6.12809 10.125 6.75 10.125H14.1609L11.5812 12.7048C11.1417 13.1442 11.1417 13.8561 11.5812 14.2956C12.0206 14.735 12.7325 14.735 13.172 14.2956L17.672 9.79559C18.109 9.35508 18.109 8.64492 17.6695 8.20547Z" fill="#EB3B5A"/>
</svg>
