<svg width="20" height="20" viewBox="0 0 20 20" fill="none" xmlns="http://www.w3.org/2000/svg">
<path d="M11.25 1.25V2C14.1016 2.5793 16.25 5.10156 16.25 8.125V8.85938C16.25 10.6992 16.9258 12.4688 18.1445 13.8438L18.4336 14.168C18.7617 14.5391 18.8437 15.0625 18.6406 15.5117C18.4375 15.9609 17.9922 16.25 17.5 16.25H2.49999C2.0078 16.25 1.56136 15.9609 1.35972 15.5117C1.15808 15.0625 1.23873 14.5391 1.56577 14.168L1.85546 13.8438C3.07577 12.4688 3.74999 10.6992 3.74999 8.85938V8.125C3.74999 5.10156 5.86327 2.5793 8.74999 2V1.25C8.74999 0.559766 9.30859 0 9.99999 0C10.6914 0 11.25 0.559766 11.25 1.25ZM9.99999 20C9.33593 20 8.69921 19.7383 8.23046 19.2695C7.76171 18.8008 7.49999 18.1289 7.49999 17.5H12.5C12.5 18.1289 12.2383 18.8008 11.7695 19.2695C11.3008 19.7383 10.6289 20 9.99999 20Z" fill="#3E424B"/>
</svg>
