<svg width="18" height="18" viewBox="0 0 18 18" fill="none" xmlns="http://www.w3.org/2000/svg">
<path d="M6 1.5V3.75" stroke="#05C46B" stroke-width="1.5" stroke-miterlimit="10" stroke-linecap="round" stroke-linejoin="round"/>
<path d="M12 1.5V3.75" stroke="#05C46B" stroke-width="1.5" stroke-miterlimit="10" stroke-linecap="round" stroke-linejoin="round"/>
<path d="M2.625 6.81836H15.375" stroke="#05C46B" stroke-width="1.5" stroke-miterlimit="10" stroke-linecap="round" stroke-linejoin="round"/>
<path d="M13.5 17.25C15.1569 17.25 16.5 15.9069 16.5 14.25C16.5 12.5931 15.1569 11.25 13.5 11.25C11.8431 11.25 10.5 12.5931 10.5 14.25C10.5 15.9069 11.8431 17.25 13.5 17.25Z" stroke="#05C46B" stroke-width="1.5" stroke-miterlimit="10" stroke-linecap="round" stroke-linejoin="round"/>
<path d="M14.6178 14.2891H12.3828" stroke="#05C46B" stroke-width="1.5" stroke-miterlimit="10" stroke-linecap="round" stroke-linejoin="round"/>
<path d="M13.5 13.1934V15.4359" stroke="#05C46B" stroke-width="1.5" stroke-miterlimit="10" stroke-linecap="round" stroke-linejoin="round"/>
<path d="M15.75 6.375V12.27C15.2025 11.6475 14.4 11.25 13.5 11.25C11.8425 11.25 10.5 12.5925 10.5 14.25C10.5 14.8125 10.6575 15.345 10.935 15.795C11.0925 16.065 11.295 16.305 11.5275 16.5H6C3.375 16.5 2.25 15 2.25 12.75V6.375C2.25 4.125 3.375 2.625 6 2.625H12C14.625 2.625 15.75 4.125 15.75 6.375Z" stroke="#05C46B" stroke-width="1.5" stroke-miterlimit="10" stroke-linecap="round" stroke-linejoin="round"/>
<path d="M8.99686 10.2754H9.00359" stroke="#05C46B" stroke-width="2" stroke-linecap="round" stroke-linejoin="round"/>
<path d="M6.22049 10.2754H6.22723" stroke="#05C46B" stroke-width="2" stroke-linecap="round" stroke-linejoin="round"/>
<path d="M6.22049 12.5254H6.22723" stroke="#05C46B" stroke-width="2" stroke-linecap="round" stroke-linejoin="round"/>
</svg>
