<svg width="20" height="20" viewBox="0 0 20 20" fill="none" xmlns="http://www.w3.org/2000/svg">
<g clip-path="url(#clip0_2274_44388)">
<path d="M10 0C4.47656 0 0 4.47656 0 10C0 15.5234 4.47656 20 10 20C15.5234 20 20 15.5234 20 10C20 4.47656 15.5234 0 10 0ZM13.75 10.9375H10.9375V13.75C10.9375 14.2656 10.5156 14.6875 10.0352 14.6875C9.48438 14.6875 9.0625 14.2656 9.0625 13.75V10.9375H6.25C5.73438 10.9375 5.3125 10.5156 5.3125 10C5.3125 9.48438 5.73438 9.0625 6.25 9.0625H9.0625V6.25C9.0625 5.73438 9.48438 5.3125 10 5.3125C10.5156 5.3125 10.9375 5.73438 10.9375 6.25V9.0625H13.75C14.2656 9.0625 14.6875 9.48438 14.6875 10C14.6875 10.5156 14.2656 10.9375 13.75 10.9375Z" fill="#05C46B"/>
</g>
<defs>
<clipPath id="clip0_2274_44388">
<rect width="20" height="20" fill="white"/>
</clipPath>
</defs>
</svg>
