<svg width="16" height="17" viewBox="0 0 16 17" fill="none" xmlns="http://www.w3.org/2000/svg">
<path d="M15.9028 8.48352C14.3972 5.07987 11.4139 2.76172 8 2.76172C4.58611 2.76172 1.6025 5.08265 0.0963611 8.48352C0.0434167 8.63066 0 8.84166 0 8.98047C0 9.11864 0.0433889 9.33027 0.0963611 9.45326C1.60333 12.8811 4.58611 15.1992 8 15.1992C11.4139 15.1992 14.3972 12.8788 15.9028 9.47741C15.9556 9.33027 16 9.09429 16 8.98047C16 8.84166 15.9556 8.63066 15.9028 8.48352ZM12 8.98047C12 11.1862 10.2092 12.9782 8.00278 12.9782C5.79444 12.9782 4 11.1876 4 8.98047C4 6.77337 5.79167 4.9827 8 4.9827C10.2083 4.9827 12 6.77337 12 8.98047ZM8 6.31529C7.93611 6.31529 7.84444 6.3264 7.76389 6.3375C7.91111 6.59291 8 6.88719 8 7.20368C8 8.18508 7.20417 8.98047 6.22222 8.98047C5.90556 8.98047 5.58611 8.88885 5.35278 8.74449C5.34444 8.82778 5.33333 8.91384 5.33333 8.98047C5.33333 10.4269 6.52778 11.6456 8 11.6456C9.47222 11.6456 10.6667 10.4521 10.6667 8.98075C10.6667 7.50935 9.44722 6.31529 8 6.31529Z" fill="#D9D9D9"/>
</svg>
