<svg width="44" height="40" viewBox="0 0 44 40" fill="none" xmlns="http://www.w3.org/2000/svg">
<ellipse cx="22.1306" cy="20" rx="21.5652" ry="20" fill="#3CD856"/>
<path d="M22.1301 24C21.5371 24 21.0296 23.8043 20.6076 23.413C20.1857 23.0217 19.9743 22.5507 19.9736 22C19.9729 21.4493 20.1842 20.9787 20.6076 20.588C21.031 20.1973 21.5385 20.0013 22.1301 20C22.7217 19.9987 23.2296 20.1947 23.6537 20.588C24.0778 20.9813 24.2888 21.452 24.2867 22C24.2845 22.548 24.0735 23.019 23.6537 23.413C23.2339 23.807 22.726 24.0027 22.1301 24ZM17.1432 15H27.1171L29.2736 11H14.9867L17.1432 15ZM18.2484 29H26.0119C27.6293 29 29.004 28.4793 30.1362 27.438C31.2684 26.3967 31.8345 25.1173 31.8345 23.6C31.8345 22.9667 31.7177 22.35 31.484 21.75C31.2504 21.15 30.918 20.6083 30.4867 20.125L27.6832 17H16.5771L13.7736 20.125C13.3423 20.6083 13.0098 21.15 12.7762 21.75C12.5426 22.35 12.4258 22.9667 12.4258 23.6C12.4258 25.1167 12.9876 26.396 14.1111 27.438C15.2347 28.48 16.6137 29.0007 18.2484 29Z" fill="white"/>
</svg>
