<svg width="20" height="20" viewBox="0 0 20 20" fill="none" xmlns="http://www.w3.org/2000/svg">
<g clip-path="url(#clip0_2193_5603)">
<path d="M14.9648 17.5H2.46484V5H8.5625L11.0625 2.5H2.46484C1.11914 2.5 0 3.61914 0 5V17.5C0 18.8809 1.11914 20 2.46484 20H14.9297C16.3102 20 17.3945 18.8809 17.3945 17.5L17.3944 8.90234L14.9295 11.402V17.5H14.9648ZM19.4492 1.64805L18.3504 0.548828C17.618 -0.183594 16.4309 -0.183594 15.6988 0.548828L14.1902 2.05781L17.9406 5.8082L19.4492 4.29922C20.1836 3.56758 20.1836 2.38047 19.4492 1.64805ZM5.75391 10.7188L5.01016 14.4383C4.94461 14.7663 5.23379 15.0555 5.56172 14.9898L9.28164 14.2461C9.46313 14.2098 9.62977 14.1206 9.76055 13.9898L17.0574 6.69289L13.307 2.9425L6.00781 10.2422C5.87891 10.3711 5.78906 10.5391 5.75391 10.7188Z" fill="#05C46B"/>
</g>
<defs>
<clipPath id="clip0_2193_5603">
<rect width="20" height="20" fill="white"/>
</clipPath>
</defs>
</svg>
