<svg width="19" height="18" viewBox="0 0 19 18" fill="none" xmlns="http://www.w3.org/2000/svg">
<g clip-path="url(#clip0_2193_7205)">
<path d="M16.29 5.44063C16.876 4.85407 16.876 3.90407 16.29 3.31782L14.4122 1.4397C13.8263 0.85376 12.875 0.85376 12.2891 1.4397L10.5225 3.20688L14.4944 7.20688L16.29 5.44063ZM9.81816 3.91345L1.70253 12.0291C1.63272 12.0989 1.58522 12.1878 1.56578 12.2846L0.74266 16.4002C0.67266 16.7502 0.98116 17.0586 1.3311 16.9886L5.44672 16.1652C5.54354 16.1459 5.63238 16.0983 5.70219 16.0285L13.8178 7.91292L9.81816 3.91345ZM17.9807 15.5L8.48066 15.5C8.06503 15.5 7.73066 15.8344 7.73066 16.25C7.73066 16.6656 8.06503 17 8.48066 17L17.9807 17C18.3947 17 18.7307 16.6641 18.7307 16.25C18.7307 15.8344 18.3963 15.5 17.9807 15.5Z" fill="#05C46B"/>
</g>
<defs>
<clipPath id="clip0_2193_7205">
<rect width="18" height="18" fill="white" transform="translate(0.730713)"/>
</clipPath>
</defs>
</svg>
