<svg width="19" height="18" viewBox="0 0 19 18" fill="none" xmlns="http://www.w3.org/2000/svg">
<g clip-path="url(#clip0_2193_7208)">
<path d="M3.72638 16.4179C3.78129 17.2911 4.53567 17.9999 5.41036 17.9999L14.0518 17.9999C14.9265 17.9999 15.6806 17.2911 15.7358 16.4179L16.4807 4.4999L2.98071 4.4999L3.72638 16.4179ZM17.0432 1.1249L13.1057 1.1249L12.6986 0.310678C12.6034 0.120131 12.4086 -0.000244141 12.1955 -0.000244141L7.26626 -0.000244141C7.05318 -0.000244141 6.85845 0.120131 6.76317 0.310678L6.35571 1.1249L2.41821 1.1249C2.10757 1.1249 1.85571 1.37669 1.85571 1.6874L1.85571 2.8124C1.85571 3.12304 2.10757 3.3749 2.41821 3.3749L17.0432 3.3749C17.3539 3.3749 17.6057 3.12304 17.6057 2.8124V1.6874C17.6057 1.37662 17.3526 1.1249 17.0432 1.1249Z" fill="#EB3B5A"/>
</g>
<defs>
<clipPath id="clip0_2193_7208">
<rect width="18" height="18" fill="white" transform="translate(0.730713)"/>
</clipPath>
</defs>
</svg>
