<svg width="18" height="19" viewBox="0 0 18 19" fill="none" xmlns="http://www.w3.org/2000/svg">
<path d="M6.3 9.50078C8.28844 9.50078 9.9 7.88894 9.9 5.90078C9.9 3.91262 8.28844 2.30078 6.3 2.30078C4.31156 2.30078 2.7 3.91262 2.7 5.90078C2.7 7.88894 4.31156 9.50078 6.3 9.50078ZM7.72594 10.8508H4.87406C2.18278 10.8508 0 13.0333 0 15.7248C0 16.2648 0.4365 16.7008 0.974812 16.7008H11.6257C12.1641 16.7008 12.6 16.2648 12.6 15.7248C12.6 13.0333 10.4175 10.8508 7.72594 10.8508ZM17.325 7.92578H15.975V6.57578C15.975 6.20453 15.6741 5.90078 15.3 5.90078C14.9259 5.90078 14.625 6.20313 14.625 6.57578V7.92578H13.275C12.9037 7.92578 12.6 8.22953 12.6 8.60078C12.6 8.97203 12.9023 9.27578 13.275 9.27578H14.625V10.6258C14.625 10.9998 14.9288 11.3008 15.3 11.3008C15.6712 11.3008 15.975 10.9984 15.975 10.6258V9.27578H17.325C17.6991 9.27578 18 8.97484 18 8.60078C18 8.22672 17.6991 7.92578 17.325 7.92578Z" fill="#3E424B"/>
</svg>
